<svg width="83" height="84" viewBox="0 0 83 84" fill="none" xmlns="http://www.w3.org/2000/svg">
<path d="M24.8156 76.8623C38.5207 76.8623 49.6312 65.752 49.6312 52.0467C49.6312 38.3416 38.5207 27.2312 24.8156 27.2312C11.1103 27.2312 0 38.3416 0 52.0467C0 65.752 11.1103 76.8623 24.8156 76.8623Z" fill="#A7AAB4"/>
<path d="M67.8566 73.7342C76.1371 73.7342 82.8497 67.0217 82.8497 58.7411C82.8497 50.4606 76.1371 43.7478 67.8566 43.7478C59.5761 43.7478 52.8633 50.4606 52.8633 58.7411C52.8633 67.0217 59.5761 73.7342 67.8566 73.7342Z" fill="#A7AAB4"/>
<path d="M29.5601 24.0114C34.6852 24.0114 38.8399 19.8567 38.8399 14.7315C38.8399 9.60639 34.6852 5.45166 29.5601 5.45166C24.435 5.45166 20.2803 9.60639 20.2803 14.7315C20.2803 19.8567 24.435 24.0114 29.5601 24.0114Z" fill="#A7AAB4"/>
<path d="M62.0274 40.5162C73.17 40.5162 82.203 31.4835 82.203 20.3407C82.203 9.19797 73.17 0.165039 62.0274 0.165039C50.8845 0.165039 41.8516 9.19797 41.8516 20.3407C41.8516 31.4835 50.8845 40.5162 62.0274 40.5162Z" fill="#A7AAB4"/>
</svg>
