<svg width="520" height="520" viewBox="0 0 520 520" fill="none" xmlns="http://www.w3.org/2000/svg">
<path d="M519.812 259.673C519.812 403.033 403.597 519.313 260.161 519.313C116.759 519.313 0.521484 403.033 0.521484 259.673C0.521484 116.234 116.759 0 260.161 0C403.597 0 519.812 116.234 519.812 259.673Z" fill="#A7AAB4"/>
<path d="M252.691 249.448C237.986 279.578 247.239 324.439 244.216 354.604C236.85 357.627 228.907 352.228 233.712 369.191C235.196 373.176 239.792 375.434 244.922 375.316C253.525 375.287 263.819 368.814 264.18 353.606C264.597 340.473 262.742 296.613 264.505 290.938C278.422 247.177 361.205 286.339 390.514 267.941C349.986 245.142 301.432 250.121 252.691 249.448Z" fill="#FEFEFE"/>
<path d="M483.082 335.461C482.908 333.225 481.831 330.921 480.741 328.633C473.205 318.612 444.451 315.579 424.395 309.651C417.4 300.411 416.163 279.115 398.435 274.148V305.46C398.654 337.824 458.519 312.917 465.678 339.157C471.039 358.481 465.514 375.109 446.361 376.57C447.323 380.02 449.269 383.043 454.469 384.674H460.062C481.447 381.001 485.964 361.97 483.082 335.461Z" fill="#FEFEFE"/>
<path d="M338.415 354.059C337.653 352.313 336.633 350.701 335.543 349.24C333.541 346.523 330.97 343.926 328.249 342.075C322.669 338.021 315.963 335.947 308.472 336.078C306.165 336.078 304.058 336.413 301.986 336.813C299.105 337.394 296.16 338.52 293.636 339.974C292.733 340.473 291.542 341.169 290.557 341.75C287.849 343.706 285.115 346.195 283.09 349.03C279.046 354.427 276.627 360.936 277.102 368.499C277.959 375.828 279.892 381.701 284.56 387.78C290.557 395.401 298.917 399.521 308.285 399.997H311.135C317.769 399.744 323.513 397.531 328.492 394C335.152 389.188 339.748 381.861 341.159 373.941C341.704 370.905 341.914 367.386 341.474 364.156C340.988 360.483 339.99 357.092 338.415 354.059Z" fill="#FEFEFE"/>
<path d="M421.513 351.962C418.719 349.624 415.7 347.596 412.247 346.552C406.433 344.34 398.907 343.706 393.537 344.711C392.447 344.898 391.279 345.223 390.281 345.676C384.514 347.747 379.166 351.962 375.969 357.45C373.189 362.2 371.545 367.655 371.86 373.799C371.929 375.287 371.984 376.57 372.31 377.912C373.189 383.043 375.414 387.628 378.7 391.505C380.394 393.547 382.429 395.467 384.514 396.95C387.064 398.743 389.808 400.098 392.91 401.057C393.859 401.28 394.774 401.605 395.874 401.756C396.176 401.861 396.501 401.94 396.731 402.022C397.17 402.022 397.669 402.17 398.018 402.252C398.746 402.252 399.36 402.393 399.974 402.393C400.922 402.393 401.943 402.452 402.833 402.393C403.877 402.393 404.802 402.393 405.751 402.252C413.116 401.28 419.59 397.821 424.533 392.217C426.896 389.677 428.829 386.598 429.906 383.368C430.625 381.395 431.226 379.396 431.459 377.318C432.942 367.061 428.889 358.004 421.513 351.962Z" fill="#FEFEFE"/>
<path d="M40.3313 316.889C40.3313 318.868 39.7304 320.385 38.6177 322.262C35.2006 327.682 31.3931 334.384 30.1523 341.228C28.1401 351.962 33.6612 360.634 41.201 363.542C48.7374 366.332 58.2104 363.335 64.0467 350.376C70.8907 326.152 90.4014 314.709 106.095 313.853C141.157 312.858 166.908 338.126 167.975 362.594C168.057 364.537 168.126 366.483 167.581 368.499C159.5 373.652 150.641 384.133 149.738 398.267C149.597 399.255 149.738 403.063 149.944 404.116C150.952 410.136 156.083 418.28 165.461 417.226C172.19 416.475 176.129 410.566 178.535 403.447C179.624 398.585 181.246 394 183.77 389.677C185.69 386.933 188.736 384.34 192.212 383.214C195.731 382.036 199.611 382.196 203.258 384.711C211.897 389.109 240.868 420.4 257.51 422.902C259.131 423.059 260.762 422.902 262.42 422.852L262.246 422.6C250.282 416.543 239.502 398.825 228.536 383.91C220.038 374.046 211.723 365.37 194.077 363.542C191.677 363.335 189.35 363.335 186.931 363.706V362.987C188.182 315.579 125.385 259.463 62.8191 301.521C66.5938 260.69 37.6002 234.162 19.6388 224.482C10.2017 219.434 5.89531 216.965 3.59093 215.938C1.56246 227.945 0.311811 240.231 0 252.747C1.96951 253.095 6.18406 254.716 14.7742 260.297C29.3779 269.806 41.037 290.15 40.3313 316.889Z" fill="#FEFEFE"/>
</svg>
