<svg width="587" height="301" viewBox="0 0 587 301" fill="none" xmlns="http://www.w3.org/2000/svg">
<path d="M75.4021 36.3561C95.3463 15.2092 123.76 2.34828 152.698 0.544692C201.447 0.335684 250.197 0.571535 298.974 0.440385C332.616 -0.788339 366.701 11.6021 391.638 34.2652C413.229 51.4644 432.913 72.8731 460.412 80.4534C486.159 87.3287 513.239 87.1189 539.326 92.3211C567.479 98.5943 588.182 126.694 586.613 155.396C585.463 174.922 589.384 195.232 583.215 214.183C576.68 233.161 559.01 247.59 539.144 250.438C527.825 251.903 516.402 250.961 505.032 251.197C498.628 268.45 486.473 283.766 469.979 292.262C449.015 303.763 422.196 303.058 401.832 290.589C386.776 281.885 375.798 267.404 369.812 251.223C319.99 251.197 270.194 251.197 220.398 251.223C213.994 268.632 201.63 284.028 184.953 292.498C163.989 303.79 137.275 302.953 116.99 290.458C102.039 281.754 91.1911 267.273 85.179 251.197C69.9914 250.753 54.2288 253.027 39.669 247.59C19.3857 240.584 3.3099 221.685 1.34946 200.067C0.617363 186.919 1.29617 173.746 1.03463 160.597C-0.271953 131.975 11.0731 103.561 29.2919 81.8128C44.2705 66.2601 60.1366 51.5955 75.4021 36.3561ZM107.815 68.7689C94.3009 82.2573 80.6829 95.6406 67.0637 109.024C59.5874 116.212 54.2557 125.335 50.4383 134.902C43.6167 150.455 47.3282 167.785 46.3096 184.175C46.5443 190.187 44.2955 199.493 52.4774 201.14C63.5873 203.858 75.2457 201.872 86.5899 202.447C98.1178 176.725 124.048 156.912 152.802 156.964C181.555 156.938 207.511 176.725 218.986 202.447C269.723 202.447 320.461 202.447 371.223 202.447C382.699 176.673 408.734 156.886 437.539 156.964C466.241 156.99 492.093 176.778 503.62 202.447C513.005 202.316 522.414 202.734 531.825 202.316C535.484 202.028 540.633 201.061 540.999 196.487C541.679 182.816 541.052 169.067 541.287 155.37C542.176 147.397 536.896 139.058 528.923 137.307C495.491 131.268 459.993 132.628 428.809 117.414C403.009 106.75 383.352 86.4137 361.891 69.266C345.764 54.3663 323.963 44.9039 301.797 45.7138C255.635 45.7924 209.472 45.7924 163.336 45.7138C142.607 44.538 121.8 53.6081 107.815 68.7689ZM145.509 205.871C134.085 209.296 126.374 222.104 129.119 233.762C131.68 246.387 145.325 255.641 157.977 252.426C171.257 249.708 180.562 234.494 175.778 221.554C172.118 209.322 157.664 201.401 145.509 205.871ZM430.377 205.793C417.177 209.505 409.021 225.842 415.294 238.389C420.026 250.1 435.108 256.608 446.688 251.015C457.85 246.623 464.594 232.9 460.333 221.477C456.699 209.374 442.454 201.532 430.377 205.793Z" fill="#A7AAB4"/>
</svg>
